<?xml version="1.0" encoding="UTF-8"?>
<svg width="500px" height="500px" viewBox="0 0 500 500" version="1.1" xmlns="http://www.w3.org/2000/svg" xmlns:xlink="http://www.w3.org/1999/xlink">
    <title>  Logo</title>
    <defs>
        <polygon id="path-1" points="0 0 58.2943925 113 440.705607 113 499 0"></polygon>
        <polygon id="path-3" points="-0.319712025 358.960076 499.680288 358.960076 473.577387 499.960076 23.5233489 499.960076"></polygon>
        <polygon id="path-5" points="1.42108547e-14 0 15.992267 23 120.901538 23 136.893805 0"></polygon>
    </defs>
    <g id="--Logo" stroke="none" stroke-width="1" fill="none" fill-rule="evenodd">
        <rect fill="#222124" x="0" y="0" width="500" height="500"></rect>
        <g id="Logo" transform="translate(0.000000, -0.404943)">
            <rect id="Rectangle" fill="#363439" x="0" y="0.404942966" width="499.572243" height="499.572243" rx="8"></rect>
            <polygon id="Path-2" fill="#FF5D5D" points="56.8556953 113 15.6844106 326.165399 482.684411 326.165399 442.689448 113"></polygon>
            <g id="Group" transform="translate(153.000000, 123.404943)">
                <circle id="Oval" fill="#FFFFFF" cx="96.5" cy="96.5" r="96.5"></circle>
                <rect id="Rectangle" fill="#FF5D5D" x="67" y="92" width="138" height="8"></rect>
                <circle id="Oval" stroke="#FF5D5D" stroke-width="8" fill="#FFFFFF" cx="96" cy="96" r="43"></circle>
            </g>
            <g id="Group-2" transform="translate(0.174905, 0.000000)">
                <mask id="mask-2" fill="white">
                    <use xlink:href="#path-1"></use>
                </mask>
                <use id="Path" fill="#222124" xlink:href="#path-1"></use>
                <mask id="mask-4" fill="white">
                    <use xlink:href="#path-3"></use>
                </mask>
                <use id="Path-3" fill-opacity="0.83" fill="#222124" xlink:href="#path-3"></use>
                <circle id="Oval" fill-opacity="0.95" fill="#1A1A1C" mask="url(#mask-4)" cx="249.064639" cy="492.231939" r="84.1730038"></circle>
            </g>
            <g id="Group-2" transform="translate(181.174905, 34.000000)">
                <mask id="mask-6" fill="white">
                    <use xlink:href="#path-5"></use>
                </mask>
                <use id="Path" fill="#FFFFFF" xlink:href="#path-5"></use>
            </g>
        </g>
    </g>
</svg>